<svg xmlns="http://www.w3.org/2000/svg" viewBox="0 0 133.76 65.87">
  <defs>
    <style>
      .a {
        fill: #fff;
      }
    </style>
  </defs>
  <title>steer-calibrate3</title>
  <path class="a" d="M332.77,709.31l-5.52-1.15a12.5,12.5,0,0,1-9.65-14.78l7-33.26a12.53,12.53,0,0,1,12.2-9.92,12.32,12.32,0,0,1,2.57.27l5.52,1.16a12.49,12.49,0,0,1,9.65,14.77l-7,33.27a12.52,12.52,0,0,1-12.2,9.91" transform="translate(-317.33 -650.2)"/>
  <path class="a" d="M336.78,654.2a8.5,8.5,0,0,0-8.28,6.74l-7,33.27a8.48,8.48,0,0,0,6.55,10l5.52,1.16a8.66,8.66,0,0,0,1.75.18,8.51,8.51,0,0,0,8.29-6.73l7-33.27a8.49,8.49,0,0,0-6.56-10l-5.52-1.16A8.52,8.52,0,0,0,336.78,654.2Z" transform="translate(-317.33 -650.2)"/>
  <path class="a" d="M422.1,714.37a12.5,12.5,0,0,1-9.16-15.08l8.07-33a12.45,12.45,0,0,1,12.11-9.52,13.06,13.06,0,0,1,3,.36l5.47,1.34a12.46,12.46,0,0,1,9.16,15.08l-8.07,33a12.44,12.44,0,0,1-12.11,9.52" transform="translate(-317.33 -650.2)"/>
  <path class="a" d="M430.55,712.07a8.45,8.45,0,0,0,8.22-6.47l8.07-33a8.45,8.45,0,0,0-6.22-10.24L435.15,661a8.74,8.74,0,0,0-2-.25,8.45,8.45,0,0,0-8.22,6.47l-8.07,33a8.49,8.49,0,0,0,6.22,10.25" transform="translate(-317.33 -650.2)"/>
  <path class="a" d="M383.36,695.77a13,13,0,1,1,13-13A13,13,0,0,1,383.36,695.77Zm0-22a9,9,0,1,0,9,9A9,9,0,0,0,383.36,673.81Z" transform="translate(-317.33 -650.2)"/>
  <path class="a" d="M372.38,684.79h-22.5a2,2,0,0,1,0-4h22.5a2,2,0,1,1,0,4Z" transform="translate(-317.33 -650.2)"/>
  <path class="a" d="M417,684.79H394.52a2,2,0,0,1,0-4H417a2,2,0,0,1,0,4Z" transform="translate(-317.33 -650.2)"/>
</svg>
