<svg xmlns="http://www.w3.org/2000/svg" viewBox="0 0 144.08 144.08">
  <defs>
    <style>
      .a {
        fill: #fff;
      }
    </style>
  </defs>
  <title>steer-calibrate2</title>
  <g>
    <path class="a" d="M364.06,741.78a59,59,0,0,1-53.67-34.69,2,2,0,0,1,3.65-1.64,54.83,54.83,0,1,0-3.18-9.17,2,2,0,1,1-3.88,1,58.86,58.86,0,1,1,57.08,44.53Z" transform="translate(-292.02 -610.91)"/>
    <path class="a" d="M309.12,699.54a2,2,0,0,1-.59-3.92l38.17-11.73c0-.32,0-.64,0-.95a17.4,17.4,0,0,1,34.79,0c0,.12,0,.23,0,.34l30.78,9.82a2,2,0,1,1-1.22,3.81l-32.27-10.29a2,2,0,0,1-1.38-2.14,12.39,12.39,0,0,0,.1-1.54,13.4,13.4,0,0,0-26.79,0,13.71,13.71,0,0,0,.18,2.08,2,2,0,0,1-1.39,2.21l-39.75,12.22A2.06,2.06,0,0,1,309.12,699.54Z" transform="translate(-292.02 -610.91)"/>
    <path class="a" d="M312.22,708.27a2,2,0,0,1-.59-3.91l40.85-12.56a2,2,0,0,1,2,.51,13.27,13.27,0,0,0,9.56,4,13.43,13.43,0,0,0,10-4.49,2,2,0,0,1,2.1-.58L408,701.44a2,2,0,1,1-1.21,3.81l-30.68-9.79a17.34,17.34,0,0,1-23.57.51L312.8,708.18A2,2,0,0,1,312.22,708.27Z" transform="translate(-292.02 -610.91)"/>
    <path class="a" d="M364.06,755a72,72,0,1,1,72-72A72.13,72.13,0,0,1,364.06,755Zm0-140.08a68,68,0,1,0,68,68A68.12,68.12,0,0,0,364.06,614.91Z" transform="translate(-292.02 -610.91)"/>
  </g>
</svg>
