<svg xmlns="http://www.w3.org/2000/svg" viewBox="0 0 133.75 143.49">
  <defs>
    <style>
      .a {
        fill: #fff;
      }
    </style>
  </defs>
  <title>steer-calibrate</title>
  <g>
    <path class="a" d="M335.17,670.58a12.49,12.49,0,0,1-2.58-.27l-5.52-1.15a12.5,12.5,0,0,1-9.64-14.78l7-33.26a12.45,12.45,0,0,1,14.77-9.65l5.52,1.16a12.49,12.49,0,0,1,9.65,14.77l-7,33.27A12.53,12.53,0,0,1,335.17,670.58Zm1.44-55.38a8.51,8.51,0,0,0-8.29,6.74l-7,33.27a8.48,8.48,0,0,0,6.56,10l5.51,1.16a8.69,8.69,0,0,0,1.76.18,8.5,8.5,0,0,0,8.28-6.73l7-33.27a8.49,8.49,0,0,0-6.55-10l-5.52-1.16A8.66,8.66,0,0,0,336.61,615.2Z" transform="translate(-317.16 -611.2)"/>
    <path class="a" d="M430.37,677.07a12.5,12.5,0,0,1-3-.36l-5.48-1.34a12.49,12.49,0,0,1-9.15-15.08l8.07-33A12.45,12.45,0,0,1,433,617.75a12.91,12.91,0,0,1,3,.36l5.48,1.34a12.49,12.49,0,0,1,9.16,15.08l-8.08,33A12.42,12.42,0,0,1,430.37,677.07ZM433,621.75a8.45,8.45,0,0,0-8.22,6.47l-8.08,33a8.5,8.5,0,0,0,6.23,10.25l5.47,1.33a8.22,8.22,0,0,0,2,.25,8.45,8.45,0,0,0,8.23-6.47l8.07-33a8.48,8.48,0,0,0-6.22-10.24L435,622A8.59,8.59,0,0,0,433,621.75Z" transform="translate(-317.16 -611.2)"/>
    <path class="a" d="M383.19,656.77a13,13,0,1,1,13-13A13,13,0,0,1,383.19,656.77Zm0-22a9,9,0,1,0,9,9A9,9,0,0,0,383.19,634.81Z" transform="translate(-317.16 -611.2)"/>
    <path class="a" d="M372.21,645.79H349.7a2,2,0,0,1,0-4h22.51a2,2,0,1,1,0,4Z" transform="translate(-317.16 -611.2)"/>
    <path class="a" d="M416.85,645.79h-22.5a2,2,0,1,1,0-4h22.5a2,2,0,0,1,0,4Z" transform="translate(-317.16 -611.2)"/>
    <path class="a" d="M338.41,754.69h-5.64a12.5,12.5,0,0,1-12.48-12.48v-34a12.5,12.5,0,0,1,12.48-12.48h5.64a12.49,12.49,0,0,1,12.47,12.48v34A12.49,12.49,0,0,1,338.41,754.69Zm-5.64-55a8.49,8.49,0,0,0-8.48,8.48v34a8.48,8.48,0,0,0,8.48,8.48h5.64a8.48,8.48,0,0,0,8.47-8.48v-34a8.49,8.49,0,0,0-8.47-8.48Z" transform="translate(-317.16 -611.2)"/>
    <path class="a" d="M434.92,754.69h-5.64a12.5,12.5,0,0,1-12.48-12.48v-34a12.5,12.5,0,0,1,12.48-12.48h5.64a12.49,12.49,0,0,1,12.47,12.48v34A12.49,12.49,0,0,1,434.92,754.69Zm-5.64-55a8.49,8.49,0,0,0-8.48,8.48v34a8.48,8.48,0,0,0,8.48,8.48h5.64a8.48,8.48,0,0,0,8.47-8.48v-34a8.49,8.49,0,0,0-8.47-8.48Z" transform="translate(-317.16 -611.2)"/>
    <path class="a" d="M383.19,738.19a13,13,0,1,1,13-13A13,13,0,0,1,383.19,738.19Zm0-22a9,9,0,1,0,9,9A9,9,0,0,0,383.19,716.24Z" transform="translate(-317.16 -611.2)"/>
    <path class="a" d="M372.21,727.21H349.7a2,2,0,0,1,0-4h22.51a2,2,0,1,1,0,4Z" transform="translate(-317.16 -611.2)"/>
    <path class="a" d="M416.85,727.21h-22.5a2,2,0,1,1,0-4h22.5a2,2,0,0,1,0,4Z" transform="translate(-317.16 -611.2)"/>
    <path class="a" d="M383.19,716.24a2,2,0,0,1-2-2V654.77a2,2,0,0,1,4,0v59.47A2,2,0,0,1,383.19,716.24Z" transform="translate(-317.16 -611.2)"/>
  </g>
</svg>
