<svg id="9413ed93-d1c9-4d5a-b6c1-bf034cdf490f" data-name="Layer 1" xmlns="http://www.w3.org/2000/svg" viewBox="0 0 143.23 191.81">
  <defs>
    <style>
      .\30 1ffc062-d1aa-4ef0-9110-c1ea0471b0c6, .\35 fbfe0e2-8447-4394-aaa0-f136f2b2dbab {
        fill: #fff;
      }

      .\30 1ffc062-d1aa-4ef0-9110-c1ea0471b0c6 {
        font-size: 15px;
        font-family: RobotoCondensed-Regular, Roboto Condensed;
      }
    </style>
  </defs>
  <title>temperature</title>
  <path class="5fbfe0e2-8447-4394-aaa0-f136f2b2dbab" d="M385.84,591.79l-3-.26c-.08,1-.17,2-.26,3A240.6,240.6,0,0,1,314,741.44l-2.12,2.12,2.2,2.2,9.56,9.56,2.12-2.12-9.56-9.56a242.4,242.4,0,0,0,69.44-148.86L399,596l.26-3Z" transform="translate(-311.83 -589.85)"/>
  <rect class="5fbfe0e2-8447-4394-aaa0-f136f2b2dbab" x="392.26" y="592.32" width="1" height="12" transform="translate(717.03 -319.61) rotate(96)"/>
  <rect class="5fbfe0e2-8447-4394-aaa0-f136f2b2dbab" x="391.76" y="596.68" width="1" height="12" transform="translate(726.43 -303.07) rotate(97)"/>
  <rect class="5fbfe0e2-8447-4394-aaa0-f136f2b2dbab" x="391.19" y="601.04" width="1" height="12" transform="translate(735.51 -286.21) rotate(98)"/>
  <rect class="5fbfe0e2-8447-4394-aaa0-f136f2b2dbab" x="390.54" y="605.38" width="1" height="12" transform="translate(744.24 -269.06) rotate(99)"/>
  <rect class="5fbfe0e2-8447-4394-aaa0-f136f2b2dbab" x="389.82" y="609.72" width="1" height="12" transform="translate(752.63 -251.61) rotate(100)"/>
  <rect class="5fbfe0e2-8447-4394-aaa0-f136f2b2dbab" x="389.01" y="614.04" width="1" height="12" transform="translate(760.66 -233.87) rotate(101)"/>
  <rect class="5fbfe0e2-8447-4394-aaa0-f136f2b2dbab" x="388.14" y="618.34" width="1" height="12" transform="translate(768.31 -215.85) rotate(102)"/>
  <rect class="5fbfe0e2-8447-4394-aaa0-f136f2b2dbab" x="387.19" y="622.63" width="1" height="12" transform="translate(775.59 -197.56) rotate(103)"/>
  <rect class="5fbfe0e2-8447-4394-aaa0-f136f2b2dbab" x="386.16" y="626.9" width="1" height="12" transform="translate(782.48 -179.01) rotate(104)"/>
  <rect class="5fbfe0e2-8447-4394-aaa0-f136f2b2dbab" x="385.06" y="631.16" width="1" height="12" transform="translate(788.97 -160.21) rotate(105)"/>
  <rect class="5fbfe0e2-8447-4394-aaa0-f136f2b2dbab" x="383.89" y="635.39" width="1" height="12" transform="translate(795.06 -141.17) rotate(106)"/>
  <rect class="5fbfe0e2-8447-4394-aaa0-f136f2b2dbab" x="382.64" y="639.6" width="1" height="12" transform="translate(800.73 -121.89) rotate(107)"/>
  <rect class="5fbfe0e2-8447-4394-aaa0-f136f2b2dbab" x="381.32" y="643.8" width="1" height="12" transform="translate(805.97 -102.39) rotate(108)"/>
  <rect class="5fbfe0e2-8447-4394-aaa0-f136f2b2dbab" x="379.92" y="647.96" width="1" height="12" transform="translate(810.79 -82.68) rotate(109)"/>
  <rect class="5fbfe0e2-8447-4394-aaa0-f136f2b2dbab" x="378.46" y="652.1" width="1" height="12" transform="translate(815.16 -62.77) rotate(110)"/>
  <rect class="5fbfe0e2-8447-4394-aaa0-f136f2b2dbab" x="376.92" y="656.22" width="1" height="12" transform="translate(819.08 -42.67) rotate(111)"/>
  <rect class="5fbfe0e2-8447-4394-aaa0-f136f2b2dbab" x="375.31" y="660.31" width="1" height="12" transform="translate(822.55 -22.39) rotate(112)"/>
  <rect class="5fbfe0e2-8447-4394-aaa0-f136f2b2dbab" x="373.63" y="664.37" width="1" height="12" transform="translate(825.56 -1.94) rotate(113)"/>
  <rect class="5fbfe0e2-8447-4394-aaa0-f136f2b2dbab" x="371.87" y="668.4" width="1" height="12" transform="translate(828.1 18.66) rotate(114)"/>
  <rect class="5fbfe0e2-8447-4394-aaa0-f136f2b2dbab" x="370.05" y="672.39" width="1" height="12" transform="translate(830.16 39.41) rotate(115)"/>
  <rect class="5fbfe0e2-8447-4394-aaa0-f136f2b2dbab" x="368.16" y="676.36" width="1" height="12" transform="translate(831.75 60.28) rotate(116)"/>
  <rect class="5fbfe0e2-8447-4394-aaa0-f136f2b2dbab" x="366.2" y="680.29" width="1" height="12" transform="translate(832.84 81.27) rotate(117)"/>
  <rect class="5fbfe0e2-8447-4394-aaa0-f136f2b2dbab" x="364.17" y="684.19" width="1" height="12" transform="translate(833.45 102.37) rotate(118)"/>
  <rect class="5fbfe0e2-8447-4394-aaa0-f136f2b2dbab" x="362.08" y="688.05" width="1" height="12" transform="translate(833.56 123.56) rotate(119)"/>
  <rect class="5fbfe0e2-8447-4394-aaa0-f136f2b2dbab" x="359.91" y="691.87" width="1" height="12" transform="translate(833.17 144.83) rotate(120)"/>
  <rect class="5fbfe0e2-8447-4394-aaa0-f136f2b2dbab" x="357.68" y="695.66" width="1" height="12" transform="translate(832.27 166.17) rotate(121)"/>
  <rect class="5fbfe0e2-8447-4394-aaa0-f136f2b2dbab" x="355.39" y="699.41" width="1" height="12" transform="translate(830.87 187.55) rotate(122)"/>
  <rect class="5fbfe0e2-8447-4394-aaa0-f136f2b2dbab" x="353.03" y="703.11" width="1" height="12" transform="translate(828.95 208.98) rotate(123)"/>
  <rect class="5fbfe0e2-8447-4394-aaa0-f136f2b2dbab" x="350.6" y="706.78" width="1" height="12" transform="translate(826.53 230.43) rotate(124)"/>
  <rect class="5fbfe0e2-8447-4394-aaa0-f136f2b2dbab" x="348.11" y="710.4" width="1" height="12" transform="translate(823.58 251.89) rotate(125)"/>
  <rect class="5fbfe0e2-8447-4394-aaa0-f136f2b2dbab" x="345.56" y="713.97" width="1" height="12" transform="matrix(-0.59, 0.81, -0.81, -0.59, 820.11, 273.34)"/>
  <rect class="5fbfe0e2-8447-4394-aaa0-f136f2b2dbab" x="342.95" y="717.51" width="1" height="12" transform="translate(816.13 294.78) rotate(127)"/>
  <rect class="5fbfe0e2-8447-4394-aaa0-f136f2b2dbab" x="340.27" y="720.99" width="1" height="12" transform="translate(811.62 316.19) rotate(128)"/>
  <rect class="5fbfe0e2-8447-4394-aaa0-f136f2b2dbab" x="337.54" y="724.43" width="1" height="12" transform="translate(806.6 337.55) rotate(129)"/>
  <rect class="5fbfe0e2-8447-4394-aaa0-f136f2b2dbab" x="334.74" y="727.82" width="1" height="12" transform="translate(801.04 358.85) rotate(130)"/>
  <rect class="5fbfe0e2-8447-4394-aaa0-f136f2b2dbab" x="331.89" y="731.16" width="1" height="12" transform="matrix(-0.66, 0.75, -0.75, -0.66, 794.97, 380.07)"/>
  <rect class="5fbfe0e2-8447-4394-aaa0-f136f2b2dbab" x="328.98" y="734.45" width="1" height="12" transform="translate(788.38 401.21) rotate(132)"/>
  <rect class="5fbfe0e2-8447-4394-aaa0-f136f2b2dbab" x="326.01" y="737.69" width="1" height="12" transform="translate(781.26 422.24) rotate(133)"/>
  <rect class="5fbfe0e2-8447-4394-aaa0-f136f2b2dbab" x="322.98" y="740.88" width="1" height="12" transform="translate(773.63 443.16) rotate(134)"/>
  <rect class="5fbfe0e2-8447-4394-aaa0-f136f2b2dbab" x="388.28" y="595.9" width="1" height="4" transform="translate(712.22 -316.11) rotate(96)"/>
  <rect class="5fbfe0e2-8447-4394-aaa0-f136f2b2dbab" x="387.79" y="600.19" width="1" height="4" transform="translate(721.49 -299.67) rotate(97)"/>
  <rect class="5fbfe0e2-8447-4394-aaa0-f136f2b2dbab" x="387.23" y="604.48" width="1" height="4" transform="translate(730.44 -282.92) rotate(98)"/>
  <rect class="5fbfe0e2-8447-4394-aaa0-f136f2b2dbab" x="386.59" y="608.76" width="1" height="4" transform="translate(739.05 -265.88) rotate(99)"/>
  <rect class="5fbfe0e2-8447-4394-aaa0-f136f2b2dbab" x="385.88" y="613.02" width="1" height="4" transform="translate(747.32 -248.54) rotate(100)"/>
  <rect class="5fbfe0e2-8447-4394-aaa0-f136f2b2dbab" x="385.09" y="617.27" width="1" height="4" transform="translate(755.23 -230.92) rotate(101)"/>
  <rect class="5fbfe0e2-8447-4394-aaa0-f136f2b2dbab" x="384.23" y="621.51" width="1" height="4" transform="translate(762.77 -213.03) rotate(102)"/>
  <rect class="5fbfe0e2-8447-4394-aaa0-f136f2b2dbab" x="383.29" y="625.73" width="1" height="4" transform="translate(769.94 -194.87) rotate(103)"/>
  <rect class="5fbfe0e2-8447-4394-aaa0-f136f2b2dbab" x="382.28" y="629.94" width="1" height="4" transform="translate(776.72 -176.45) rotate(104)"/>
  <rect class="5fbfe0e2-8447-4394-aaa0-f136f2b2dbab" x="381.2" y="634.12" width="1" height="4" transform="translate(783.11 -157.78) rotate(105)"/>
  <rect class="5fbfe0e2-8447-4394-aaa0-f136f2b2dbab" x="380.04" y="638.29" width="1" height="4" transform="translate(789.09 -138.88) rotate(106)"/>
  <rect class="5fbfe0e2-8447-4394-aaa0-f136f2b2dbab" x="378.81" y="642.44" width="1" height="4" transform="translate(794.67 -119.75) rotate(107)"/>
  <rect class="5fbfe0e2-8447-4394-aaa0-f136f2b2dbab" x="377.51" y="646.56" width="1" height="4" transform="translate(799.82 -100.39) rotate(108)"/>
  <rect class="5fbfe0e2-8447-4394-aaa0-f136f2b2dbab" x="376.14" y="650.66" width="1" height="4" transform="translate(804.54 -80.83) rotate(109)"/>
  <rect class="5fbfe0e2-8447-4394-aaa0-f136f2b2dbab" x="374.7" y="654.74" width="1" height="4" transform="translate(808.83 -61.07) rotate(110)"/>
  <rect class="5fbfe0e2-8447-4394-aaa0-f136f2b2dbab" x="373.18" y="658.79" width="1" height="4" transform="translate(812.67 -41.13) rotate(111)"/>
  <rect class="5fbfe0e2-8447-4394-aaa0-f136f2b2dbab" x="371.6" y="662.81" width="1" height="4" transform="translate(816.06 -21.01) rotate(112)"/>
  <rect class="5fbfe0e2-8447-4394-aaa0-f136f2b2dbab" x="369.94" y="666.8" width="1" height="4" transform="translate(819 -0.73) rotate(113)"/>
  <rect class="5fbfe0e2-8447-4394-aaa0-f136f2b2dbab" x="368.22" y="670.77" width="1" height="4" transform="translate(821.47 19.71) rotate(114)"/>
  <rect class="5fbfe0e2-8447-4394-aaa0-f136f2b2dbab" x="366.43" y="674.7" width="1" height="4" transform="translate(823.47 40.29) rotate(115)"/>
  <rect class="5fbfe0e2-8447-4394-aaa0-f136f2b2dbab" x="364.57" y="678.61" width="1" height="4" transform="translate(825 60.99) rotate(116)"/>
  <rect class="5fbfe0e2-8447-4394-aaa0-f136f2b2dbab" x="362.64" y="682.48" width="1" height="4" transform="translate(826.04 81.81) rotate(117)"/>
  <rect class="5fbfe0e2-8447-4394-aaa0-f136f2b2dbab" x="360.64" y="686.31" width="1" height="4" transform="translate(826.6 102.73) rotate(118)"/>
  <rect class="5fbfe0e2-8447-4394-aaa0-f136f2b2dbab" x="358.58" y="690.11" width="1" height="4" transform="translate(826.67 123.74) rotate(119)"/>
  <rect class="5fbfe0e2-8447-4394-aaa0-f136f2b2dbab" x="356.45" y="693.87" width="1" height="4" transform="translate(826.24 144.83) rotate(120)"/>
  <rect class="5fbfe0e2-8447-4394-aaa0-f136f2b2dbab" x="354.25" y="697.6" width="1" height="4" transform="translate(825.31 165.98) rotate(121)"/>
  <rect class="5fbfe0e2-8447-4394-aaa0-f136f2b2dbab" x="349.67" y="704.93" width="1" height="4" transform="translate(821.95 208.43) rotate(123)"/>
  <rect class="5fbfe0e2-8447-4394-aaa0-f136f2b2dbab" x="347.28" y="708.54" width="1" height="4" transform="translate(819.5 229.69) rotate(124)"/>
  <rect class="5fbfe0e2-8447-4394-aaa0-f136f2b2dbab" x="344.83" y="712.1" width="1" height="4" transform="translate(816.54 250.96) rotate(125)"/>
  <rect class="5fbfe0e2-8447-4394-aaa0-f136f2b2dbab" x="342.32" y="715.62" width="1" height="4" transform="matrix(-0.59, 0.81, -0.81, -0.59, 813.07, 272.23)"/>
  <rect class="5fbfe0e2-8447-4394-aaa0-f136f2b2dbab" x="339.75" y="719.1" width="1" height="4" transform="translate(809.09 293.48) rotate(127)"/>
  <rect class="5fbfe0e2-8447-4394-aaa0-f136f2b2dbab" x="337.12" y="722.53" width="1" height="4" transform="translate(804.59 314.69) rotate(128)"/>
  <rect class="5fbfe0e2-8447-4394-aaa0-f136f2b2dbab" x="334.43" y="725.91" width="1" height="4" transform="translate(799.57 335.86) rotate(129)"/>
  <rect class="5fbfe0e2-8447-4394-aaa0-f136f2b2dbab" x="331.68" y="729.25" width="1" height="4" transform="translate(794.04 356.97) rotate(130)"/>
  <rect class="5fbfe0e2-8447-4394-aaa0-f136f2b2dbab" x="328.87" y="732.54" width="1" height="4" transform="matrix(-0.66, 0.75, -0.75, -0.66, 787.99, 378.01)"/>
  <rect class="5fbfe0e2-8447-4394-aaa0-f136f2b2dbab" x="326" y="735.78" width="1" height="4" transform="translate(781.43 398.95) rotate(132)"/>
  <g>
    <rect class="5fbfe0e2-8447-4394-aaa0-f136f2b2dbab" x="351.99" y="701.29" width="1" height="4" transform="translate(823.88 187.19) rotate(122)"/>
    <rect class="5fbfe0e2-8447-4394-aaa0-f136f2b2dbab" x="320.11" y="742.1" width="1" height="4" transform="translate(766.75 440.52) rotate(134)"/>
    <rect class="5fbfe0e2-8447-4394-aaa0-f136f2b2dbab" x="323.08" y="738.97" width="1" height="4" transform="translate(774.35 419.79) rotate(133)"/>
  </g>
  <text class="01ffc062-d1aa-4ef0-9110-c1ea0471b0c6" transform="translate(102.31 12.83)">100°</text>
  <text class="01ffc062-d1aa-4ef0-9110-c1ea0471b0c6" transform="translate(77.74 103.66)">50°</text>
  <text class="01ffc062-d1aa-4ef0-9110-c1ea0471b0c6" transform="translate(23.42 181.36)">0°</text>
</svg>
